<svg width="336" height="97" viewBox="0 0 336 97" fill="none" xmlns="http://www.w3.org/2000/svg">
<path d="M82.7744 62.2351C89.8239 62.2351 93.4623 58.6009 93.4623 53.3768C93.4623 48.607 90.5061 45.8814 85.0485 45.2L83.4567 44.9728C79.5908 44.5186 78.2264 43.1557 78.2264 41.1115C78.2264 38.8402 79.8182 37.2502 82.7744 37.2502C85.0485 37.2502 87.3225 37.9316 89.5965 39.5216C89.8239 39.7487 90.0513 39.5216 90.2787 39.2944L92.3253 36.1145C92.5527 35.8874 92.5527 35.6603 92.3253 35.4331C90.0513 33.8432 86.6403 32.7075 83.2292 32.7075C77.3168 32.7075 73.6784 36.1145 73.6784 41.1115C73.6784 45.8814 76.862 48.3799 82.0922 49.0613L83.6841 49.2884C87.5499 49.7427 88.9143 51.1055 88.9143 53.1497C88.9143 55.421 86.8677 57.2381 83.6841 57.2381C80.5004 57.2381 77.7716 55.6482 75.9524 54.2854C75.725 54.0582 75.4976 54.0582 75.2702 54.2854L72.314 57.9195C72.0866 58.1467 72.314 58.3738 72.314 58.6009C74.588 60.6452 78.6812 62.2351 82.7744 62.2351ZM105.287 62.008C105.515 62.008 105.742 61.7808 105.742 61.5537V58.1467C105.742 57.9195 105.515 57.6924 105.287 57.6924H104.15C102.786 57.6924 102.331 57.2381 102.331 55.8753V45.4271C102.331 45.2 102.331 45.2 102.558 45.2H105.287C105.515 45.2 105.742 44.9728 105.742 44.7457V42.0201C105.742 41.7929 105.515 41.5658 105.287 41.5658H102.558C102.331 41.5658 102.331 41.5658 102.331 41.3387V35.8874C102.331 35.6603 102.104 35.4331 101.876 35.4331H98.0104C97.783 35.4331 97.5556 35.6603 97.5556 35.8874V41.3387C97.5556 41.5658 97.5556 41.5658 97.3282 41.5658H95.9638C95.7364 41.5658 95.509 41.7929 95.509 42.0201V44.9728C95.509 45.2 95.7364 45.4271 95.9638 45.4271H97.3282C97.5556 45.4271 97.5556 45.4271 97.5556 45.6542V56.1025C97.5556 59.9638 99.1474 62.008 103.013 62.008H105.287ZM126.208 61.7808C126.436 61.7808 126.663 61.5537 126.663 61.3266V42.2472C126.663 42.0201 126.436 41.7929 126.208 41.7929H122.342C122.115 41.7929 121.888 42.0201 121.888 42.2472V53.8311C121.888 56.3296 120.523 58.1467 118.249 58.1467C115.748 58.1467 114.611 56.3296 114.611 53.8311V42.2472C114.611 42.0201 114.383 41.7929 114.156 41.7929H110.29C110.063 41.7929 109.835 42.0201 109.835 42.2472V54.9668C109.835 59.2824 112.564 62.4623 116.657 62.4623C119.159 62.4623 120.751 61.5537 121.888 60.1909V61.5537C121.888 61.7808 122.115 62.008 122.342 62.008H126.208V61.7808ZM147.811 61.7808C148.039 61.7808 148.266 61.5537 148.266 61.3266V33.8432C148.266 33.6161 148.039 33.3889 147.811 33.3889H143.946C143.718 33.3889 143.491 33.6161 143.491 33.8432V43.61C142.581 42.2472 140.762 41.3387 138.261 41.3387C134.849 41.3387 132.348 42.9286 131.211 46.1085C130.756 47.6985 130.529 49.0613 130.529 51.7869C130.529 54.5125 130.756 55.8753 131.211 57.4653C132.348 60.6452 134.849 62.2351 138.261 62.2351C140.989 62.2351 142.581 61.3266 143.491 59.9638V61.5537C143.491 61.7808 143.718 62.008 143.946 62.008H147.811V61.7808ZM139.398 58.1467C137.578 58.1467 136.214 57.2381 135.759 55.6482C135.532 54.7397 135.304 53.8311 135.304 52.014C135.304 50.1969 135.532 49.2884 135.759 48.3799C136.214 46.7899 137.578 45.8814 139.398 45.8814C141.217 45.8814 142.581 46.7899 143.036 48.3799C143.263 49.2884 143.491 50.1969 143.491 52.014C143.491 53.8311 143.263 54.7397 143.036 55.6482C142.581 57.2381 141.217 58.1467 139.398 58.1467ZM157.362 37.9316C157.59 37.9316 157.817 37.7045 157.817 37.4774V33.8432C157.817 33.6161 157.59 33.3889 157.362 33.3889H153.496C153.269 33.3889 153.042 33.6161 153.042 33.8432V37.4774C153.042 37.7045 153.269 37.9316 153.496 37.9316H157.362ZM157.362 61.7808C157.59 61.7808 157.817 61.5537 157.817 61.3266V42.2472C157.817 42.0201 157.59 41.7929 157.362 41.7929H153.496C153.269 41.7929 153.042 42.0201 153.042 42.2472V61.3266C153.042 61.5537 153.269 61.7808 153.496 61.7808H157.362ZM171.234 62.2351C174.872 62.2351 177.828 60.8723 179.42 58.8281C179.648 58.6009 179.648 58.3738 179.42 58.1467L176.919 55.8753C176.691 55.6482 176.464 55.6482 176.237 55.8753C175.327 57.011 173.735 57.6924 171.461 57.6924C169.187 57.6924 167.595 56.5567 166.913 54.7396C166.686 54.2854 166.686 53.8311 166.686 53.1497C166.686 52.9226 166.686 52.9226 166.913 52.9226H179.193C179.42 52.9226 179.648 52.6954 179.648 52.4683C179.648 49.2884 179.42 47.9256 178.965 46.5628C177.828 43.1557 174.872 41.1115 170.779 41.1115C166.686 41.1115 163.73 43.1557 162.593 46.5628C162.138 47.9256 161.91 49.5155 161.91 51.5598C161.91 53.604 162.138 55.1939 162.593 56.5567C163.957 60.1909 166.913 62.2351 171.234 62.2351ZM175.327 49.5155C175.327 49.7427 175.327 49.7427 175.1 49.7427H167.141C166.913 49.7427 166.913 49.7427 166.913 49.5155C166.913 48.8341 166.913 48.3799 167.141 47.9256C167.595 46.3356 169.187 45.4271 171.006 45.4271C172.826 45.4271 174.417 46.3356 174.872 47.9256C175.1 48.3799 175.327 48.8341 175.327 49.5155ZM200.569 61.7808C200.796 61.7808 201.023 61.5537 201.023 61.3266V48.607C201.023 44.2914 198.295 41.1115 193.974 41.1115C191.245 41.1115 189.653 42.2472 188.744 43.3829V42.0201C188.744 41.7929 188.516 41.5658 188.289 41.5658H184.423C184.196 41.5658 183.968 41.7929 183.968 42.0201V61.0994C183.968 61.3266 184.196 61.5537 184.423 61.5537H188.289C188.516 61.5537 188.744 61.3266 188.744 61.0994V49.5155C188.744 47.017 190.108 45.2 192.61 45.2C195.111 45.2 196.475 47.017 196.475 49.5155V61.0994C196.475 61.3266 196.703 61.5537 196.93 61.5537H200.569V61.7808ZM213.303 62.2351C218.761 62.2351 221.717 59.5095 221.717 55.421C221.717 52.2412 219.67 49.9698 215.577 49.5155L213.303 49.2884C210.802 49.0613 210.12 48.3799 210.12 47.2442C210.12 46.1085 211.257 45.2 213.076 45.2C215.122 45.2 217.169 45.8814 218.306 46.7899C218.533 47.017 218.761 47.017 218.988 46.7899L221.035 44.2914C221.262 44.0643 221.262 43.8372 221.035 43.61C219.216 42.2472 216.714 41.1115 213.531 41.1115C208.528 41.1115 205.799 43.61 205.799 47.4713C205.799 50.8783 207.846 52.9226 211.939 53.3768L214.213 53.604C216.942 53.8311 217.624 54.5125 217.624 55.8753C217.624 57.2381 216.487 58.1467 213.985 58.1467C211.939 58.1467 209.665 57.2381 208.073 55.8753C207.846 55.6482 207.618 55.6482 207.391 55.8753L205.117 58.3738C204.889 58.601 204.889 58.8281 205.117 59.0552C206.254 60.6452 209.21 62.2351 213.303 62.2351ZM234.224 62.008C234.452 62.008 234.679 61.7808 234.679 61.5537V58.1467C234.679 57.9195 234.452 57.6924 234.224 57.6924H233.087C231.723 57.6924 231.268 57.2381 231.268 55.8753V45.4271C231.268 45.2 231.268 45.2 231.495 45.2H234.224C234.452 45.2 234.679 44.9728 234.679 44.7457V42.0201C234.679 41.7929 234.452 41.5658 234.224 41.5658H231.495C231.268 41.5658 231.268 41.5658 231.268 41.3387V35.8874C231.268 35.6603 231.04 35.4331 230.813 35.4331H226.947C226.72 35.4331 226.492 35.6603 226.492 35.8874V41.3387C226.492 41.5658 226.492 41.5658 226.265 41.5658H224.901C224.673 41.5658 224.446 41.7929 224.446 42.0201V44.9728C224.446 45.2 224.673 45.4271 224.901 45.4271H226.265C226.492 45.4271 226.492 45.4271 226.492 45.6542V56.1025C226.492 59.9638 228.084 62.008 231.95 62.008H234.224ZM243.093 37.9316C243.32 37.9316 243.548 37.7045 243.548 37.4774V33.8432C243.548 33.6161 243.32 33.3889 243.093 33.3889H239.227C239 33.3889 238.772 33.6161 238.772 33.8432V37.4774C238.772 37.7045 239 37.9316 239.227 37.9316H243.093ZM243.093 61.7808C243.32 61.7808 243.548 61.5537 243.548 61.3266V42.2472C243.548 42.0201 243.32 41.7929 243.093 41.7929H239.227C239 41.7929 238.772 42.0201 238.772 42.2472V61.3266C238.772 61.5537 239 61.7808 239.227 61.7808H243.093ZM254.008 61.7808C254.236 61.7808 254.463 61.5537 254.463 61.3266V45.6542C254.463 45.4271 254.463 45.4271 254.69 45.4271H258.329C258.556 45.4271 258.784 45.2 258.784 44.9728V42.2472C258.784 42.0201 258.556 41.7929 258.329 41.7929H254.69C254.463 41.7929 254.463 41.7929 254.463 41.5658V40.203C254.463 38.1588 254.918 37.7045 256.964 37.7045H258.329C258.556 37.7045 258.784 37.4774 258.784 37.2502V33.8432C258.784 33.6161 258.556 33.3889 258.329 33.3889H256.51C252.189 33.3889 249.915 35.4331 249.915 39.9758V41.3387C249.915 41.5658 249.915 41.5658 249.687 41.5658H248.323C248.096 41.5658 247.868 41.7929 247.868 42.0201V44.9728C247.868 45.2 248.096 45.4271 248.323 45.4271H249.687C249.915 45.4271 249.915 45.4271 249.915 45.6542V61.3266C249.915 61.5537 250.142 61.7808 250.37 61.7808H254.008ZM270.836 62.008C271.063 62.008 271.291 61.7808 271.291 61.5537V58.1467C271.291 57.9195 271.063 57.6924 270.836 57.6924H269.699C268.334 57.6924 267.88 57.2381 267.88 55.8753V45.4271C267.88 45.2 267.88 45.2 268.107 45.2H270.836C271.063 45.2 271.291 44.9728 271.291 44.7457V42.0201C271.291 41.7929 271.063 41.5658 270.836 41.5658H268.107C267.88 41.5658 267.88 41.5658 267.88 41.3387V35.8874C267.88 35.6603 267.652 35.4331 267.425 35.4331H263.559C263.332 35.4331 263.104 35.6603 263.104 35.8874V41.3387C263.104 41.5658 263.104 41.5658 262.877 41.5658H261.512C261.285 41.5658 261.058 41.7929 261.058 42.0201V44.9728C261.058 45.2 261.285 45.4271 261.512 45.4271H262.877C263.104 45.4271 263.104 45.4271 263.104 45.6542V56.1025C263.104 59.9638 264.696 62.008 268.562 62.008H270.836ZM291.529 61.7808C291.757 61.7808 291.984 61.5537 291.984 61.3266V42.2472C291.984 42.0201 291.757 41.7929 291.529 41.7929H287.664C287.436 41.7929 287.209 42.0201 287.209 42.2472V53.8311C287.209 56.3296 285.844 58.1467 283.57 58.1467C281.069 58.1467 279.932 56.3296 279.932 53.8311V42.2472C279.932 42.0201 279.705 41.7929 279.477 41.7929H275.611C275.384 41.7929 275.156 42.0201 275.156 42.2472V54.9668C275.156 59.2824 277.885 62.4623 281.979 62.4623C284.48 62.4623 286.072 61.5537 287.209 60.1909V61.5537C287.209 61.7808 287.436 62.008 287.664 62.008H291.529V61.7808ZM313.815 61.7808C314.042 61.7808 314.27 61.5537 314.27 61.3266V48.607C314.27 44.2914 311.541 41.1115 307.22 41.1115C304.491 41.1115 302.9 42.2472 301.99 43.3829V42.0201C301.99 41.7929 301.763 41.5658 301.535 41.5658H297.669C297.442 41.5658 297.214 41.7929 297.214 42.0201V61.0994C297.214 61.3266 297.442 61.5537 297.669 61.5537H301.535C301.763 61.5537 301.99 61.3266 301.99 61.0994V49.5155C301.99 47.017 303.354 45.2 305.856 45.2C308.357 45.2 309.722 47.017 309.722 49.5155V61.0994C309.722 61.3266 309.949 61.5537 310.176 61.5537H313.815V61.7808ZM326.095 69.7306C332.234 69.7306 335.418 66.3236 335.418 60.6452V42.2472C335.418 42.0201 335.191 41.7929 334.963 41.7929H331.097C330.87 41.7929 330.643 42.0201 330.643 42.2472V43.8372C329.733 42.4743 327.914 41.5658 325.412 41.5658C322.001 41.5658 319.727 43.1557 318.59 46.5628C318.135 48.1527 317.908 49.5155 317.908 51.5598C317.908 53.604 318.135 55.1939 318.59 56.5567C319.727 59.7366 322.001 61.3266 325.412 61.3266C327.914 61.3266 329.733 60.418 330.643 59.0552V60.8723C330.643 64.0522 329.278 65.6421 326.095 65.6421C324.503 65.6421 322.911 64.9607 321.774 63.8251C321.546 63.5979 321.319 63.5979 321.092 63.8251L318.59 66.3236C318.363 66.5507 318.363 66.7778 318.59 67.005C320.182 68.5949 323.138 69.7306 326.095 69.7306ZM326.777 57.011C324.958 57.011 323.821 56.1025 323.138 54.5125C322.911 53.604 322.684 52.6954 322.684 51.3326C322.684 49.9698 322.911 49.0613 323.138 48.1527C323.593 46.5628 324.73 45.6542 326.777 45.6542C328.596 45.6542 329.733 46.5628 330.415 48.1527C330.643 49.0613 330.87 50.1969 330.87 51.3326C330.87 52.6954 330.643 53.604 330.415 54.5125C329.733 56.1025 328.596 57.011 326.777 57.011Z" fill="#F7A600"/>
<path d="M6.82221 0H5.9126V31.7989H6.82221V0Z" fill="#989898"/>
<path d="M18.1924 0H16.6006V31.7989H18.1924V0Z" fill="#989898"/>
<path d="M29.1077 0H27.061V31.7989H29.1077V0Z" fill="#989898"/>
<path d="M40.4778 0H37.749V31.7989H40.4778V0Z" fill="#989898"/>
<path d="M51.6202 0H48.4365V31.7989H51.6202V0Z" fill="#989898"/>
<path d="M48.4365 31.799H47.5269V63.825H48.4365V31.799Z" fill="#F7A600"/>
<path d="M37.294 31.799H35.7021V63.825H37.294V31.799Z" fill="#F7A600"/>
<path d="M25.6965 31.799H23.6499V63.825H25.6965V31.799Z" fill="#F7A600"/>
<path d="M14.554 31.799H11.8252V63.825H14.554V31.799Z" fill="#F7A600"/>
<path d="M3.18363 31.799H0V63.825H3.18363V31.799Z" fill="#F7A600"/>
<path d="M6.82221 63.5979H5.9126V96.5325H6.82221V63.5979Z" fill="#989898"/>
<path d="M18.1924 63.5979H16.6006V96.5325H18.1924V63.5979Z" fill="#989898"/>
<path d="M29.1077 63.5979H27.061V96.5325H29.1077V63.5979Z" fill="#989898"/>
<path d="M40.4778 63.5979H37.749V96.5325H40.4778V63.5979Z" fill="#989898"/>
<path d="M51.6202 63.5979H48.4365V96.5325H51.6202V63.5979Z" fill="#989898"/>
<path d="M145.31 77.2261C143.718 77.2261 142.809 77.6803 141.899 78.1346V78.3618L142.581 79.7246C142.581 79.7246 142.809 79.9517 142.809 79.7246C143.263 79.2703 143.946 79.0432 144.855 79.0432C146.447 79.0432 146.902 79.4974 146.902 80.6331V81.0874C146.902 81.0874 146.902 81.3145 146.674 81.3145H145.083C142.809 81.3145 141.217 82.223 141.217 84.2673C141.217 86.3115 142.581 87.22 144.4 87.22C145.765 87.22 146.674 86.7658 147.129 86.0843V86.7658C147.129 86.9929 147.129 86.9929 147.357 86.9929H148.948C149.176 86.9929 149.176 86.9929 149.176 86.7658V80.6331C149.176 78.1346 148.039 77.2261 145.31 77.2261ZM147.129 83.5859C147.129 84.7215 146.447 85.1758 145.083 85.1758C143.946 85.1758 143.491 84.7215 143.491 84.0401C143.491 83.1316 144.173 82.6773 145.537 82.6773H147.129C147.129 82.6773 147.357 82.6773 147.357 82.9045V83.5859H147.129Z" fill="#989898"/>
<path d="M156.453 77.2261C155.088 77.2261 154.406 77.6804 153.951 78.3618V73.8191C153.951 73.5919 153.951 73.5919 153.724 73.5919H151.905C151.677 73.5919 151.677 73.5919 151.677 73.8191V86.7658C151.677 86.9929 151.677 86.9929 151.905 86.9929H153.724C153.951 86.9929 153.951 86.9929 153.951 86.7658V85.8572C154.406 86.5386 155.088 86.9929 156.453 86.9929C158.044 86.9929 159.182 86.3115 159.636 84.7216C159.864 84.0401 159.864 83.3587 159.864 81.9959C159.864 80.6331 159.864 80.1788 159.636 79.2703C159.182 77.9075 158.044 77.2261 156.453 77.2261ZM157.59 83.813C157.362 84.4944 156.68 84.9487 155.77 84.9487C154.861 84.9487 154.179 84.4944 153.951 83.813C153.724 83.3587 153.724 82.9045 153.724 81.9959C153.724 81.0874 153.724 80.6331 153.951 80.1788C154.179 79.4974 154.861 79.0432 155.77 79.0432C156.68 79.0432 157.362 79.4974 157.59 80.1788C157.817 80.6331 157.817 81.0874 157.817 81.9959C157.817 82.9045 157.817 83.3587 157.59 83.813Z" fill="#989898"/>
<path d="M117.34 79.9517C118.249 79.4975 118.931 78.5889 118.931 76.999C118.931 74.9548 117.567 73.3648 114.838 73.3648H109.835C109.608 73.3648 109.608 73.3648 109.608 73.5919V86.5387C109.608 86.7658 109.608 86.7658 109.835 86.7658H114.611C117.567 86.7658 119.159 85.403 119.159 82.9045C119.159 81.3145 118.249 80.1789 117.34 79.9517ZM112.109 75.6362L114.838 75.409C115.975 75.409 116.657 76.0904 116.657 77.2261C116.657 78.3618 115.975 79.0432 114.838 79.0432H112.109C112.109 79.0432 111.882 79.0432 111.882 78.8161V75.6362H112.109ZM114.838 84.7216H112.109C112.109 84.7216 111.882 84.7216 111.882 84.4944V81.0874C111.882 81.0874 111.882 80.8603 112.109 80.8603H114.838C116.203 80.8603 116.885 81.5417 116.885 82.6774C116.885 84.0402 116.203 84.7216 114.838 84.7216Z" fill="#989898"/>
<path d="M99.8299 81.0874H98.9202C97.7832 80.8603 97.3284 80.6331 97.3284 80.1789C97.3284 79.7246 97.7832 79.2703 98.6928 79.2703C99.6025 79.2703 100.512 79.7246 101.194 79.9517H101.422L102.331 78.8161V78.5889C101.422 77.9075 100.285 77.4532 98.6928 77.4532C96.4188 77.4532 95.0544 78.5889 95.0544 80.406C95.0544 81.996 95.964 82.9045 98.0106 83.1316H98.9202C100.057 83.3588 100.512 83.5859 100.512 84.2673C100.512 84.9487 99.8299 85.403 98.6928 85.403C97.7832 85.403 96.6462 84.9487 95.964 84.2673H95.7366L94.5996 85.403V85.6301C95.2818 86.3115 96.6462 87.2201 98.6928 87.2201C101.194 87.2201 102.559 85.8573 102.559 84.0402C102.786 82.2231 101.876 81.3146 99.8299 81.0874Z" fill="#989898"/>
<path d="M90.7336 77.2261L90.5062 82.9045C90.5062 84.0402 89.824 84.9487 88.687 84.9487C87.55 84.9487 86.8678 84.0402 86.8678 82.9045V77.4532C86.8678 77.2261 86.8678 77.2261 86.6404 77.2261H84.8211C84.5937 77.2261 84.5938 77.2261 84.5938 77.4532V83.3588C84.5938 85.403 85.7308 86.7658 87.7774 86.7658C88.9144 86.7658 89.5966 86.3115 90.2788 85.6301V86.3115C90.2788 86.5387 90.2788 86.5386 90.5062 86.5386H92.3254C92.5528 86.5386 92.5528 86.5387 92.5528 86.3115V77.2261C92.5528 76.999 92.5528 76.999 92.3254 76.999H90.7336V77.2261Z" fill="#989898"/>
<path d="M137.124 77.2261L136.896 78.1346C136.442 77.4532 135.759 76.999 134.395 76.999C132.803 76.999 131.666 77.9075 131.211 79.2703C130.984 79.9517 130.984 80.6331 130.984 81.5417C130.984 82.6773 130.984 83.1316 131.211 84.0402C131.666 85.6301 132.803 86.3115 134.395 86.3115C135.532 86.3115 136.442 85.8572 136.896 85.1758V86.0844C136.896 87.4472 136.214 88.3557 134.85 88.3557C134.168 88.3557 133.485 88.1286 132.803 87.4472H132.576L131.439 88.81V89.0371C132.121 89.9457 133.485 90.4 134.85 90.4C137.806 90.4 139.17 88.81 139.17 86.0844V77.4532C139.17 77.2261 139.17 77.2261 138.943 77.2261H137.124ZM136.896 83.3588C136.669 84.0402 136.214 84.4944 135.305 84.4944C134.395 84.4944 133.94 84.0402 133.713 83.3588C133.485 82.9045 133.485 82.4502 133.485 81.7688C133.485 81.0874 133.485 80.6331 133.713 80.1789C133.94 79.4975 134.395 79.0432 135.305 79.0432C136.214 79.0432 136.669 79.4975 136.896 80.1789C137.124 80.6331 137.124 81.0874 137.124 81.7688C137.124 82.4502 136.896 82.9045 136.896 83.3588Z" fill="#989898"/>
<path d="M129.165 82.6773C129.392 80.8602 129.392 80.406 129.165 79.7246C128.71 78.1346 127.345 77.2261 125.299 77.2261C123.48 77.2261 121.888 78.1346 121.433 79.7246C121.206 80.406 121.206 81.0874 121.206 81.9959C121.206 82.9045 121.433 83.5859 121.433 84.2673C121.888 85.8572 123.252 86.7658 125.299 86.7658C127.118 86.7658 128.255 86.0844 129.165 85.1758V84.9487L128.028 84.0401H127.8C127.345 84.4944 126.663 84.9487 125.526 84.9487C124.389 84.9487 123.707 84.4944 123.48 83.5859C123.48 83.3587 123.252 83.1316 123.252 82.9045C123.252 82.9045 123.252 82.6773 123.48 82.6773H129.165ZM123.252 80.1788C123.48 79.4974 124.162 79.0432 125.071 79.0432C125.981 79.0432 126.663 79.4974 126.891 80.1788C126.891 80.406 127.118 80.6331 127.118 81.0874C127.118 81.0874 127.118 81.3145 126.891 81.3145H123.252C123.252 81.3145 123.025 81.3145 123.025 81.0874C123.252 80.6331 123.252 80.406 123.252 80.1788Z" fill="#989898"/>
<path d="M168.05 77.2261C167.823 77.4532 167.823 77.2261 168.05 77.2261L167.823 82.9045C167.823 84.0402 167.14 84.9487 166.003 84.9487C164.866 84.9487 164.184 84.0402 164.184 82.9045V77.4532C164.184 77.2261 164.184 77.2261 163.957 77.2261H162.138C161.91 77.2261 161.91 77.2261 161.91 77.4532V83.3588C161.91 85.403 163.047 86.7658 165.094 86.7658C166.231 86.7658 166.913 86.3115 167.595 85.6301V86.3115C167.595 86.5387 167.595 86.5386 167.823 86.5386H169.642C169.869 86.5386 169.869 86.5387 169.869 86.3115V77.2261C169.869 76.999 169.869 76.999 169.642 76.999H168.05V77.2261Z" fill="#989898"/>
<path d="M78.9086 73.5919H77.0894C76.862 73.5919 76.862 73.5919 76.862 73.8191L72.314 86.7658C72.314 86.9929 72.314 86.9929 72.5414 86.9929H74.3606C74.588 86.9929 74.588 86.9929 74.588 86.7658L75.4976 84.2673H80.5004L81.41 86.7658C81.41 86.9929 81.6374 86.9929 81.6374 86.9929H83.4567C83.6841 86.9929 83.6841 86.9929 83.6841 86.7658L79.136 73.8191C79.136 73.5919 78.9086 73.5919 78.9086 73.5919ZM76.1798 81.9959L77.999 76.7718L79.8182 81.9959H76.1798Z" fill="#989898"/>
<path d="M306.765 77.2261C305.628 77.2261 304.719 77.6804 304.264 78.3618V73.8191C304.264 73.5919 304.264 73.5919 304.036 73.5919H302.217C301.99 73.5919 301.99 73.5919 301.99 73.8191V86.7658C301.99 86.9929 301.99 86.9929 302.217 86.9929H304.036C304.264 86.9929 304.264 86.9929 304.264 86.7658V81.3145C304.264 80.1788 304.946 79.2703 306.083 79.2703C307.22 79.2703 307.902 80.1788 307.902 81.3145V86.7658C307.902 86.9929 307.902 86.9929 308.13 86.9929H309.949C310.176 86.9929 310.176 86.9929 310.176 86.7658V80.8603C309.949 78.5889 308.812 77.2261 306.765 77.2261Z" fill="#989898"/>
<path d="M296.76 79.0432C297.442 79.0432 298.124 79.2703 298.579 79.9517C298.579 79.9517 298.806 80.1788 298.806 79.9517L299.943 78.816V78.5889C299.261 77.6803 298.124 77.2261 296.76 77.2261C294.941 77.2261 293.349 78.1346 292.894 79.7246C292.667 80.406 292.667 81.0874 292.667 81.9959C292.667 82.9045 292.667 83.813 292.894 84.2673C293.349 85.8572 294.941 86.7658 296.76 86.7658C298.124 86.7658 299.261 86.3115 299.943 85.4029V85.1758L298.806 84.0401H298.579C298.124 84.4944 297.669 84.9487 296.76 84.9487C295.85 84.9487 295.168 84.4944 294.941 83.813C294.713 83.3587 294.713 82.6773 294.713 81.9959C294.713 81.3145 294.713 80.6331 294.941 80.1788C295.395 79.4974 295.85 79.0432 296.76 79.0432Z" fill="#989898"/>
<path d="M286.527 77.2261C284.935 77.2261 284.025 77.6803 283.116 78.1346V78.3618L283.798 79.7246C283.798 79.7246 284.025 79.9517 284.025 79.7246C284.48 79.2703 285.162 79.0432 286.072 79.0432C287.664 79.0432 288.118 79.4974 288.118 80.6331V81.0874C288.118 81.0874 288.119 81.3145 287.891 81.3145H286.072C283.798 81.3145 282.206 82.223 282.206 84.2673C282.206 86.3115 283.57 87.22 285.39 87.22C286.754 87.22 287.664 86.7658 288.118 86.0843V86.7658C288.118 86.9929 288.118 86.9929 288.346 86.9929H289.938C290.165 86.9929 290.165 86.9929 290.165 86.7658V80.6331C290.393 78.1346 289.483 77.2261 286.527 77.2261ZM288.346 83.5859C288.346 84.7215 287.664 85.1758 286.299 85.1758C285.162 85.1758 284.707 84.7215 284.707 84.0401C284.707 83.1316 285.39 82.6773 286.754 82.6773H288.346C288.346 82.6773 288.573 82.6773 288.573 82.9045V83.5859H288.346Z" fill="#989898"/>
<path d="M277.203 77.2261C275.839 77.2261 274.929 77.6803 274.247 78.3618C273.792 77.4532 272.883 77.2261 271.746 77.2261C270.609 77.2261 269.699 77.6803 269.244 78.3618V77.6803C269.244 77.4532 269.244 77.4532 269.017 77.4532H267.198C266.97 77.4532 266.97 77.4532 266.97 77.6803V86.7658C266.97 86.9929 266.97 86.9929 267.198 86.9929H269.017C269.244 86.9929 269.244 86.9929 269.244 86.7658V81.3145C269.244 80.1788 269.926 79.2703 271.063 79.2703C272.2 79.2703 272.883 80.1788 272.883 81.3145V86.7658C272.883 86.9929 272.883 86.9929 273.11 86.9929H274.929C275.157 86.9929 275.157 86.9929 275.157 86.7658V81.3145C275.157 80.1788 275.839 79.2703 276.976 79.2703C278.113 79.2703 278.795 80.1788 278.795 81.3145V86.7658C278.795 86.9929 278.795 86.9929 279.022 86.9929H280.842C281.069 86.9929 281.069 86.9929 281.069 86.7658V80.8602C280.614 78.5889 279.25 77.2261 277.203 77.2261Z" fill="#989898"/>
<path d="M335.191 84.2673H333.144C332.916 84.2673 332.917 84.2673 332.917 84.4944V86.5386C332.917 86.7658 332.916 86.7658 333.144 86.7658H335.191C335.418 86.7658 335.418 86.7658 335.418 86.5386L335.191 84.2673C335.418 84.4944 335.418 84.2673 335.191 84.2673Z" fill="#989898"/>
<path d="M258.556 77.2261C258.329 77.2261 258.329 77.2261 258.556 77.2261L258.329 74.5004C258.329 74.2733 258.329 74.2733 258.102 74.2733H256.282C256.055 74.2733 256.055 74.2733 256.055 74.5004V76.9989C256.055 76.9989 256.055 77.2261 255.828 77.2261H255.145C254.918 77.2261 254.918 77.2261 254.918 77.4532V78.816C254.918 79.0432 254.918 79.0432 255.145 79.0432H255.828C255.828 79.0432 256.055 79.0432 256.055 79.2703V84.2673C256.055 86.0843 256.737 86.9929 258.556 86.9929H259.466C259.693 86.9929 259.693 86.9929 259.693 86.7658V85.1758C259.693 84.9487 259.693 84.9487 259.466 84.9487H259.011C258.329 84.9487 258.102 84.7215 258.102 84.0401V79.0432C258.102 79.0432 258.102 78.816 258.329 78.816H259.466C259.693 78.816 259.693 78.816 259.693 78.5889V77.2261C259.693 76.9989 259.693 76.9989 259.466 76.9989H258.556V77.2261Z" fill="#989898"/>
<path d="M177.374 77.2261C176.237 77.2261 175.327 77.6803 174.872 78.3618V77.6803C174.872 77.4532 174.872 77.4532 174.645 77.4532H172.826C172.598 77.4532 172.598 77.4532 172.598 77.6803V86.7658C172.598 86.9929 172.598 86.9929 172.826 86.9929H174.645C174.872 86.9929 174.872 86.9929 174.872 86.7658V81.3145C174.872 80.1788 175.554 79.2703 176.691 79.2703C177.828 79.2703 178.511 80.1788 178.511 81.3145V86.7658C178.511 86.9929 178.511 86.9929 178.738 86.9929H180.557C180.785 86.9929 180.785 86.9929 180.785 86.7658V80.8602C180.557 78.5889 179.42 77.2261 177.374 77.2261Z" fill="#989898"/>
<path d="M320.182 82.6773C320.41 82.6773 320.41 82.6773 320.182 82.6773C320.41 80.8602 320.41 80.406 320.182 79.7246C319.727 78.1346 318.363 77.2261 316.316 77.2261C314.497 77.2261 312.905 78.1346 312.451 79.7246C312.223 80.406 312.223 81.0874 312.223 81.9959C312.223 82.9045 312.451 83.5859 312.451 84.2673C312.905 85.8572 314.27 86.7658 316.316 86.7658C318.136 86.7658 319.273 86.0844 320.182 85.1758V84.9487L319.045 84.0401H318.818C318.363 84.4944 317.681 84.9487 316.544 84.9487C315.407 84.9487 314.725 84.4944 314.497 83.5859C314.497 83.3587 314.27 83.1316 314.27 82.9045C314.27 82.9045 314.27 82.6773 314.497 82.6773H320.182ZM314.497 80.1788C314.725 79.4974 315.407 79.0432 316.316 79.0432C317.226 79.0432 317.908 79.4974 318.136 80.1788C318.136 80.406 318.363 80.6331 318.363 81.0874C318.363 81.0874 318.363 81.3145 318.136 81.3145H314.497C314.497 81.3145 314.27 81.3145 314.27 81.0874C314.27 80.6331 314.27 80.406 314.497 80.1788Z" fill="#989898"/>
<path d="M327.232 77.2261C326.094 77.2261 325.185 77.6803 324.73 78.3618V77.6803C324.73 77.4532 324.73 77.4532 324.503 77.4532H322.683C322.456 77.4532 322.456 77.4532 322.456 77.6803V86.7658C322.456 86.9929 322.456 86.9929 322.683 86.9929H324.503C324.73 86.9929 324.73 86.9929 324.73 86.7658V81.3145C324.73 80.1788 325.412 79.2703 326.549 79.2703C327.686 79.2703 328.369 80.1788 328.369 81.3145V86.7658C328.369 86.9929 328.368 86.9929 328.596 86.9929H330.415C330.643 86.9929 330.643 86.9929 330.643 86.7658V80.8602C330.415 78.5889 329.278 77.2261 327.232 77.2261Z" fill="#989898"/>
<path d="M252.871 73.5919C250.824 73.5919 249.687 74.5005 249.687 76.7718V77.4532C249.687 77.4532 249.687 77.6804 249.46 77.6804H248.778C248.55 77.6804 248.55 77.6804 248.55 77.9075V79.2703C248.55 79.4974 248.55 79.4975 248.778 79.4975H249.46C249.46 79.4975 249.687 79.4974 249.687 79.7246V86.9929C249.687 87.2201 249.687 87.22 249.915 87.22H251.734C251.961 87.22 251.961 87.2201 251.961 86.9929V79.0432C251.961 79.0432 251.961 78.816 252.189 78.816H253.781C254.008 78.816 254.008 78.816 254.008 78.5889V77.2261C254.008 76.999 254.008 76.999 253.781 76.999H251.961C251.961 76.999 251.734 76.999 251.734 76.7718V76.0904C251.734 75.1819 251.961 74.9547 252.871 74.9547H253.553C253.781 74.9547 253.781 74.9547 253.781 74.7276V73.1377C253.781 72.9105 253.781 72.9105 253.553 72.9105H252.871V73.5919Z" fill="#989898"/>
<path d="M214.213 77.2261C213.985 77.4532 213.985 77.2261 214.213 77.2261L213.985 82.9045C213.985 84.0402 213.303 84.9487 212.166 84.9487C211.029 84.9487 210.347 84.0402 210.347 82.9045V77.4532C210.347 77.2261 210.347 77.2261 210.119 77.2261H208.3C208.073 77.2261 208.073 77.2261 208.073 77.4532V83.3588C208.073 85.403 209.21 86.7658 211.256 86.7658C212.393 86.7658 213.076 86.3115 213.758 85.6301V86.3115C213.758 86.5387 213.758 86.5386 213.985 86.5386H215.804C216.032 86.5386 216.032 86.5387 216.032 86.3115V77.2261C216.032 76.999 216.032 76.999 215.804 76.999H214.213V77.2261Z" fill="#989898"/>
<path d="M188.744 77.2261L188.516 78.1346C188.062 77.4532 187.379 76.999 186.015 76.999C184.423 76.999 183.286 77.9075 182.831 79.2703C182.604 79.9517 182.604 80.6331 182.604 81.5417C182.604 82.6773 182.604 83.1316 182.831 84.0402C183.286 85.6301 184.423 86.3115 186.015 86.3115C187.152 86.3115 188.062 85.8572 188.516 85.1758V86.0844C188.516 87.4472 187.834 88.3557 186.47 88.3557C185.788 88.3557 185.105 88.1286 184.423 87.4472H184.196L183.059 88.5829V88.81C183.741 89.7185 185.105 90.1728 186.47 90.1728C189.426 90.1728 190.79 88.5829 190.79 85.8572V77.2261C190.79 76.999 190.79 76.999 190.563 76.999H188.744V77.2261ZM188.516 83.3588C188.289 84.0402 187.834 84.4944 186.925 84.4944C186.015 84.4944 185.56 84.0402 185.333 83.3588C185.105 82.9045 185.105 82.4502 185.105 81.7688C185.105 81.0874 185.105 80.6331 185.333 80.1789C185.56 79.4975 186.015 79.0432 186.925 79.0432C187.834 79.0432 188.289 79.4975 188.516 80.1789C188.744 80.6331 188.744 81.0874 188.744 81.7688C188.744 82.4502 188.516 82.9045 188.516 83.3588Z" fill="#989898"/>
<path d="M198.067 73.5919L197.84 75.409C197.84 75.6361 197.84 75.6361 198.067 75.6361H203.752L197.84 84.7216V84.9487V86.5386C197.84 86.7658 197.84 86.7658 198.067 86.7658H206.254C206.481 86.7658 206.481 86.7658 206.481 86.5386V84.9487C206.481 84.7215 206.481 84.7216 206.254 84.7216H200.341L206.254 75.6361V75.409V73.8191C206.254 73.5919 206.254 73.5919 206.026 73.5919H198.067Z" fill="#989898"/>
<path d="M243.775 77.2261C242.638 77.2261 241.728 77.6803 241.274 78.3618V77.6803C241.274 77.4532 241.274 77.4532 241.046 77.4532H239.227C239 77.4532 239 77.4532 239 77.6803V86.7658C239 86.9929 239 86.9929 239.227 86.9929H241.046C241.274 86.9929 241.274 86.9929 241.274 86.7658V81.3145C241.274 80.1788 241.956 79.2703 243.093 79.2703C244.23 79.2703 244.912 80.1788 244.912 81.3145V86.7658C244.912 86.9929 244.912 86.9929 245.139 86.9929H246.959C247.186 86.9929 247.186 86.9929 247.186 86.7658V80.8602C246.959 78.5889 245.594 77.2261 243.775 77.2261Z" fill="#989898"/>
<path d="M234.451 77.2261C234.224 77.4532 234.224 77.2261 234.451 77.2261L234.224 82.9045C234.224 84.0402 233.542 84.9487 232.405 84.9487C231.268 84.9487 230.586 84.0402 230.586 82.9045V77.4532C230.586 77.2261 230.586 77.2261 230.358 77.2261H228.539C228.312 77.2261 228.312 77.2261 228.312 77.4532V83.3588C228.312 85.403 229.449 86.7658 231.495 86.7658C232.632 86.7658 233.314 86.3115 233.997 85.6301V86.3115C233.997 86.5387 233.997 86.5386 234.224 86.5386H236.043C236.271 86.5386 236.271 86.5387 236.271 86.3115V77.2261C236.271 76.999 236.271 76.999 236.043 76.999H234.451V77.2261Z" fill="#989898"/>
<path d="M223.536 80.8603L226.492 77.4532V77.2261H224.446C224.218 77.2261 224.218 77.2261 223.991 77.4532L220.807 81.3145V73.5919C220.807 73.3648 220.807 73.3648 220.58 73.3648H218.761C218.533 73.3648 218.533 73.3648 218.533 73.5919V86.5387C218.533 86.7658 218.533 86.7658 218.761 86.7658H220.58C220.807 86.7658 220.807 86.7658 220.807 86.5387V84.0402L222.172 82.6774L224.446 86.5387C224.446 86.7658 224.673 86.7658 224.673 86.7658H226.72C226.947 86.7658 226.947 86.5387 226.72 86.5387L223.536 80.8603Z" fill="#989898"/>
<path d="M168.96 0H72.9961V21.805H168.96V0Z" fill="#989898"/>
<path d="M160.091 11.8111L156.225 12.0382C156.225 12.0382 155.998 12.0382 155.998 11.8111C155.998 11.5839 155.998 11.1297 156.225 10.9025C156.453 10.2211 157.135 9.76685 158.045 9.76685C158.954 9.76685 159.636 10.2211 159.864 10.9025C159.864 11.1297 160.091 11.3568 160.091 11.8111ZM158.045 17.7166C159.864 17.7166 161.228 17.0352 161.91 16.1266V15.8995L160.773 14.7638H160.546C160.091 15.2181 159.409 15.6724 158.272 15.6724C157.135 15.6724 156.453 15.2181 156.225 14.3096C156.225 14.0824 155.998 13.8553 155.998 13.6282C155.998 13.6282 155.998 13.401 156.225 13.401H162.138C162.365 13.401 162.365 13.401 162.365 13.1739C162.365 11.5839 162.365 10.9025 162.138 10.2211C161.683 8.63117 160.091 7.49549 158.272 7.49549C156.453 7.49549 154.861 8.40404 154.406 10.2211C154.179 10.9025 154.179 11.5839 154.179 12.4925C154.179 13.401 154.406 14.3096 154.406 14.7638C154.634 16.808 155.998 17.7166 158.045 17.7166ZM148.039 17.7166L148.266 12.2653C148.266 10.6754 148.721 9.76685 150.086 9.76685C150.54 9.76685 150.995 9.99399 151.45 10.2211H151.677L152.814 8.85831V8.63117C152.36 8.1769 151.677 7.94977 150.768 7.94977C149.631 7.94977 148.721 8.40404 148.266 9.08544V8.1769C148.266 7.94976 148.266 7.94977 148.039 7.94977H146.22C145.992 7.94977 145.992 7.94976 145.992 8.1769V17.2623C145.992 17.4894 145.992 17.4894 146.22 17.4894H148.039V17.7166ZM143.036 17.7166C143.263 17.7166 143.263 17.4894 143.036 17.7166L143.263 11.5839C143.263 9.53971 141.899 7.94977 139.852 7.94977C138.488 7.94977 137.806 8.40404 137.351 9.08544V4.54274C137.351 4.3156 137.351 4.3156 137.124 4.3156H135.304C135.077 4.3156 135.077 4.3156 135.077 4.54274V17.7166C135.077 17.9437 135.077 17.9437 135.304 17.9437H137.124C137.351 17.9437 137.351 17.9437 137.351 17.7166V12.2653C137.351 11.1297 138.033 10.2211 139.17 10.2211C140.307 10.2211 140.989 11.1297 140.989 12.2653V17.7166C140.989 17.9437 140.989 17.9437 141.217 17.9437H143.036V17.7166ZM128.255 16.1266C127.118 16.1266 126.663 15.6724 126.663 14.991C126.663 14.0824 127.345 13.6282 128.71 13.6282H130.302C130.302 13.6282 130.529 13.6281 130.529 13.8553V14.5367C130.302 15.4452 129.619 16.1266 128.255 16.1266ZM132.348 17.7166L132.576 11.3568C132.576 9.08544 131.439 7.94977 128.482 7.94977C126.891 7.94977 125.754 8.40404 125.071 8.85831V9.08544L125.754 10.4483C125.754 10.4483 125.981 10.6754 125.981 10.4483C126.436 9.99398 127.118 9.76685 128.255 9.76685C129.847 9.76685 130.302 10.2211 130.302 11.3568V11.8111C130.302 11.8111 130.302 12.0382 130.074 12.0382H128.028C125.754 12.0382 124.162 12.9467 124.162 14.991C124.162 17.0352 125.526 17.9437 127.345 17.9437C128.71 17.9437 129.619 17.4895 130.074 16.808V17.4894C130.074 17.7166 130.074 17.7166 130.302 17.7166H132.348ZM114.156 16.1266C114.838 17.0352 116.203 17.7166 117.567 17.7166C120.523 17.7166 122.115 16.1266 122.115 12.9467V4.3156C122.115 4.08847 122.115 4.08846 121.888 4.08846H120.069C119.841 4.08846 119.841 4.08847 119.841 4.3156V13.1739C119.841 14.991 118.931 15.8995 117.567 15.8995C116.885 15.8995 116.203 15.4452 115.748 14.991C115.748 14.7638 115.52 14.7638 115.52 14.991L114.156 16.1266ZM101.649 14.7638C101.422 14.3096 101.422 13.8553 101.422 10.9025C101.422 7.94977 101.422 7.49549 101.649 7.04122C101.876 6.35982 102.559 5.90555 103.241 5.90555C103.923 5.90555 104.605 6.35982 104.833 7.04122C105.06 7.49549 105.06 7.94977 105.06 10.9025C105.06 13.8553 105.06 14.3096 104.833 14.7638C104.605 15.4452 103.923 15.8995 103.241 15.8995C102.559 15.8995 101.876 15.4452 101.649 14.7638ZM99.6023 15.2181C100.057 16.808 101.422 17.9437 103.468 17.9437C105.515 17.9437 106.652 17.0352 107.334 15.2181C107.561 14.7638 107.561 14.0824 107.561 10.9025C107.561 7.72263 107.561 7.04122 107.334 6.58695C106.879 4.99701 105.515 3.86133 103.468 3.86133C101.422 3.86133 100.285 4.76987 99.6023 6.58695C99.3749 7.04122 99.3749 7.72263 99.3749 10.9025C99.3749 14.0824 99.3749 14.5367 99.6023 15.2181ZM90.9611 14.7638C90.7337 14.3096 90.7336 13.8553 90.7336 10.9025C90.7336 7.94977 90.7337 7.49549 90.9611 7.04122C91.1885 6.35982 91.8707 5.90555 92.5529 5.90555C93.2351 5.90555 93.9173 6.35982 94.1447 7.04122C94.3721 7.49549 94.3721 7.94977 94.3721 10.9025C94.3721 13.8553 94.3721 14.3096 94.1447 14.7638C93.9173 15.4452 93.2351 15.8995 92.5529 15.8995C91.8707 15.8995 91.1885 15.4452 90.9611 14.7638ZM88.687 15.2181C89.1418 16.808 90.5063 17.9437 92.5529 17.9437C94.5995 17.9437 95.7365 17.0352 96.4187 15.2181C96.6461 14.7638 96.6461 14.0824 96.6461 10.9025C96.6461 7.72263 96.6461 7.04122 96.4187 6.58695C95.9639 4.99701 94.5995 3.86133 92.5529 3.86133C90.5063 3.86133 89.3692 4.76987 88.687 6.58695C88.4596 7.04122 88.4596 7.72263 88.4596 10.9025C88.4596 14.0824 88.4596 14.5367 88.687 15.2181ZM82.3198 17.4894L84.3664 17.7166C84.5938 17.7166 84.5938 17.7166 84.5938 17.4894V4.3156C84.5938 4.08847 84.5938 4.08846 84.3664 4.08846H82.7746C82.5472 4.08846 82.5472 4.08847 82.3198 4.3156L80.0458 5.90555L79.8184 6.13268V8.1769C79.8184 8.40403 79.8184 8.40404 80.0458 8.40404L82.0924 7.04122V17.4894H82.3198Z" fill="white"/>
</svg>
